<svg width="283" height="200" viewBox="0 0 283 200" fill="none" xmlns="http://www.w3.org/2000/svg">
<g opacity="0.25">
<path d="M177.348 193.092C180.112 190.416 183.875 188.792 188.025 188.827C192.146 188.862 195.906 190.524 198.706 193.236" stroke="#1C186C" stroke-width="3.29925" stroke-linecap="round" stroke-linejoin="round"/>
<path d="M198.046 186.951C195.064 184.969 191.638 183.839 188.002 183.805C183.741 183.77 179.784 185.257 176.492 187.841C175.159 188.889 174.782 190.943 175.641 192.527L176.541 194.187L180.267 200.948C180.267 200.948 182.913 205.76 185.406 210.298C186.611 212.491 189.414 212.524 190.61 210.364L199.509 194.333L200.385 192.752C201.247 191.185 200.861 189.1 199.502 188.033C199.045 187.637 198.545 187.286 198.046 186.951Z" stroke="#1C186C" stroke-width="3.29925" stroke-linecap="round" stroke-linejoin="round"/>
<path d="M192.969 196.257C193.302 196.41 193.676 196.41 194.009 196.258C194.19 196.182 194.328 196.076 194.467 195.939C194.717 195.651 194.87 195.27 194.871 194.875C194.871 194.464 194.733 194.099 194.47 193.81C194.206 193.52 193.874 193.368 193.499 193.367C193.124 193.367 192.791 193.519 192.528 193.808C192.264 194.096 192.125 194.476 192.124 194.872C192.124 195.267 192.276 195.648 192.525 195.937C192.65 196.089 192.802 196.196 192.969 196.257Z" fill="#201D67"/>
<path d="M187.506 194.759C187.839 194.912 188.213 194.912 188.546 194.76C188.713 194.684 188.866 194.578 189.004 194.441C189.254 194.153 189.407 193.772 189.408 193.377C189.408 192.966 189.27 192.601 189.007 192.312C188.743 192.022 188.411 191.87 188.036 191.87C187.662 191.869 187.329 192.021 187.065 192.31C186.801 192.598 186.662 192.963 186.661 193.374C186.661 193.77 186.813 194.15 187.062 194.439C187.187 194.576 187.326 194.683 187.506 194.759Z" fill="#201D67"/>
<path d="M181.565 195.939C182.078 196.502 182.993 196.503 183.507 195.941C183.757 195.652 183.91 195.272 183.911 194.877C183.911 194.466 183.773 194.101 183.51 193.811C183.246 193.522 182.914 193.369 182.539 193.369C182.359 193.369 182.178 193.414 182.026 193.49C181.859 193.566 181.706 193.672 181.568 193.809C181.304 194.098 181.165 194.463 181.164 194.874C181.178 195.254 181.33 195.65 181.565 195.939Z" fill="#201D67"/>
<path d="M184.015 201.453C184.084 201.651 184.181 201.803 184.305 201.955C184.818 202.519 185.734 202.519 186.248 201.957C186.373 201.805 186.47 201.653 186.539 201.456C186.609 201.273 186.651 201.075 186.651 200.893C186.651 200.695 186.61 200.497 186.541 200.33C186.471 200.147 186.375 199.98 186.25 199.828C185.987 199.538 185.654 199.386 185.279 199.385C185.099 199.385 184.919 199.431 184.766 199.506C184.599 199.582 184.447 199.689 184.308 199.825C184.044 200.114 183.905 200.479 183.904 200.89C183.904 201.072 183.946 201.27 184.015 201.453Z" fill="#201D67"/>
<path d="M189.497 201.46C189.566 201.642 189.663 201.81 189.788 201.962C190.314 202.525 191.23 202.526 191.73 201.964C191.855 201.812 191.952 201.66 192.022 201.462C192.091 201.28 192.133 201.082 192.133 200.9C192.134 200.489 191.996 200.124 191.732 199.834C191.594 199.697 191.441 199.591 191.275 199.514C191.108 199.438 190.928 199.392 190.748 199.392C190.373 199.392 190.04 199.543 189.776 199.832C189.651 199.984 189.554 200.151 189.484 200.334C189.401 200.516 189.373 200.714 189.373 200.897C189.387 201.079 189.414 201.277 189.497 201.46Z" fill="#201D67"/>
<path d="M131.726 147.801C132.617 148.019 133.544 147.989 134.422 147.714C135.3 147.438 136.101 146.926 136.752 146.224C137.028 145.912 137.182 145.494 137.183 145.06C137.183 144.625 137.03 144.207 136.754 143.895L135.174 142.097" stroke="#1C186C" stroke-width="3.29925" stroke-linecap="round" stroke-linejoin="round"/>
<path d="M121.387 136.239C121.197 135.249 121.235 134.223 121.498 133.253C121.761 132.284 122.24 131.401 122.892 130.685C123.03 130.532 123.194 130.411 123.375 130.329C123.557 130.246 123.751 130.204 123.947 130.204C124.143 130.204 124.337 130.247 124.518 130.33C124.699 130.413 124.863 130.534 125.001 130.687L126.61 132.485" stroke="#1C186C" stroke-width="3.29925" stroke-linecap="round" stroke-linejoin="round"/>
<path d="M134.087 132.126C133.515 131.132 133.213 129.981 133.216 128.806C133.217 128.014 133.362 127.229 133.641 126.498C133.921 125.766 134.33 125.103 134.844 124.546C134.942 124.45 135.068 124.397 135.199 124.397C135.329 124.397 135.455 124.451 135.552 124.547C136.006 125.052 136.368 125.646 136.619 126.299C136.848 126.776 137.007 127.29 137.089 127.821C137.121 128.145 137.12 128.472 137.088 128.795C136.837 130.275 136.148 131.623 135.127 132.629C136.074 131.539 137.316 130.814 138.669 130.563C138.964 130.532 139.262 130.533 139.557 130.564C140.042 130.668 140.51 130.853 140.945 131.113C141.542 131.425 142.078 131.859 142.525 132.393C142.613 132.5 142.662 132.638 142.661 132.782C142.661 132.925 142.613 133.063 142.525 133.17C141.485 134.282 140.089 134.904 138.636 134.901C137.571 134.892 136.531 134.547 135.639 133.908" stroke="#1C186C" stroke-width="3.29925" stroke-linecap="round" stroke-linejoin="round"/>
<path d="M118.15 151.146C118.314 151.353 118.5 151.537 118.704 151.694C119.275 152.094 119.912 152.365 120.579 152.491C121.246 152.617 121.93 152.596 122.589 152.429C124.148 152.173 125.653 151.612 127.032 150.775C129.625 149.405 131.805 147.247 133.312 144.557C134.648 141.853 135.406 138.851 135.528 135.778C135.528 135.565 135.766 133.968 135.613 133.861L134.075 132.124C133.978 131.957 132.534 132.123 132.34 132.199C129.524 132.276 126.763 133.07 124.274 134.518C121.805 136.114 119.815 138.466 118.549 141.285C117.325 144.068 115.932 148.496 118.15 151.146Z" stroke="#1C186C" stroke-width="3.29925" stroke-linecap="round" stroke-linejoin="round"/>
<path d="M127.812 149.393C127.251 147.316 126.238 145.418 124.861 143.865C123.478 142.315 121.768 141.163 119.882 140.511" stroke="#1C186C" stroke-width="3.29925" stroke-linecap="round" stroke-linejoin="round"/>
<path d="M121.816 149.343C121.945 149.49 122.1 149.608 122.272 149.688C122.443 149.768 122.628 149.809 122.814 149.81C123.001 149.81 123.186 149.769 123.357 149.689C123.529 149.609 123.684 149.492 123.814 149.345C124.003 149.13 124.131 148.859 124.18 148.566C124.23 148.272 124.2 147.969 124.094 147.694C123.988 147.419 123.81 147.185 123.583 147.02C123.356 146.855 123.09 146.767 122.818 146.766C122.545 146.766 122.279 146.854 122.052 147.018C121.825 147.182 121.646 147.417 121.54 147.691C121.433 147.966 121.402 148.269 121.451 148.563C121.5 148.856 121.627 149.128 121.816 149.343Z" fill="#201D67"/>
<path d="M58.7513 211.581L72.9793 196.012C74.4938 194.355 74.4966 191.676 72.9857 190.016C71.4748 188.355 69.0322 188.352 67.5177 190.01L53.2897 205.578C51.7752 207.236 51.7723 209.914 53.2833 211.575C54.7942 213.235 57.2368 213.238 58.7513 211.581Z" stroke="#1C186C" stroke-width="3.29925" stroke-linecap="round" stroke-linejoin="round"/>
<path d="M69.9989 193.936C68.3591 195.73 67.7768 195.09 66.1232 196.885C64.4834 198.679 65.0657 199.319 63.4259 201.128C61.7862 202.923 61.19 202.283 59.5502 204.077C57.9105 205.871 58.4927 206.527 56.853 208.321" stroke="#1C186C" stroke-width="3.29925" stroke-linecap="round" stroke-linejoin="round"/>
<path d="M63.664 213.381L74.6129 201.4C76.4331 199.408 76.4365 196.197 74.6206 194.201L57.1135 213.358C58.9155 215.369 61.8577 215.372 63.664 213.381Z" stroke="#1C186C" stroke-width="3.29925" stroke-linecap="round" stroke-linejoin="round"/>
<path d="M62.6078 188.208L51.6589 200.189C49.8388 202.18 49.8353 205.392 51.6512 207.387L69.1583 188.23C67.3563 186.219 64.4141 186.216 62.6078 188.208Z" stroke="#1C186C" stroke-width="3.29925" stroke-linecap="round" stroke-linejoin="round"/>
<path d="M254.937 44.0298C257.701 41.3542 261.464 39.7299 265.613 39.7648C269.735 39.7996 273.494 41.4625 276.295 44.1745" stroke="#1C186C" stroke-width="3.29925" stroke-linecap="round" stroke-linejoin="round"/>
<path d="M275.635 37.8888C272.653 35.9071 269.227 34.7772 265.591 34.7429C261.33 34.7079 257.373 36.1951 254.081 38.7787C252.748 39.8274 252.371 41.8815 253.23 43.4652L254.13 45.125L257.856 51.8862C257.856 51.8862 260.501 56.6982 262.995 61.2361C264.2 63.4289 267.003 63.4624 268.199 61.3026L277.098 45.2715L277.974 43.6897C278.836 42.123 278.45 40.0377 277.091 38.9709C276.634 38.5747 276.134 38.2241 275.635 37.8888Z" stroke="#1C186C" stroke-width="3.29925" stroke-linecap="round" stroke-linejoin="round"/>
<path d="M270.557 47.202C270.889 47.3545 271.264 47.3549 271.597 47.2031C271.778 47.1272 271.916 47.0209 272.055 46.8842C272.305 46.5954 272.458 46.2153 272.459 45.8197C272.459 45.409 272.321 45.0438 272.057 44.7545C271.794 44.4651 271.461 44.3127 271.087 44.3123C270.712 44.3119 270.379 44.4636 270.115 44.7524C269.852 45.0411 269.712 45.4213 269.712 45.8168C269.712 46.2123 269.864 46.5928 270.113 46.8821C270.238 47.0343 270.39 47.141 270.557 47.202Z" fill="#201D67"/>
<path d="M265.094 45.702C265.427 45.8545 265.801 45.8549 266.134 45.7032C266.301 45.6273 266.453 45.521 266.592 45.3842C266.842 45.0954 266.995 44.7153 266.996 44.3198C266.996 43.909 266.858 43.5438 266.595 43.2545C266.331 42.9652 265.999 42.8127 265.624 42.8123C265.249 42.8119 264.916 42.9637 264.653 43.2524C264.389 43.5412 264.25 43.9061 264.249 44.3168C264.249 44.7123 264.401 45.0928 264.65 45.3821C264.775 45.5192 264.914 45.6258 265.094 45.702Z" fill="#201D67"/>
<path d="M259.153 46.8847C259.666 47.4481 260.581 47.4491 261.095 46.8868C261.345 46.598 261.498 46.2179 261.499 45.8223C261.499 45.4116 261.361 45.0464 261.098 44.7571C260.834 44.4678 260.502 44.3153 260.127 44.3149C259.947 44.3147 259.766 44.3601 259.614 44.436C259.447 44.5119 259.294 44.6182 259.155 44.755C258.892 45.0437 258.752 45.4087 258.752 45.8194C258.765 46.1997 258.918 46.5954 259.153 46.8847Z" fill="#201D67"/>
<path d="M261.603 52.3976C261.672 52.5954 261.769 52.7476 261.893 52.8999C262.406 53.4633 263.322 53.4643 263.835 52.902C263.96 52.75 264.058 52.598 264.127 52.4003C264.197 52.2178 264.239 52.0201 264.239 51.8375C264.239 51.6398 264.198 51.442 264.129 51.2746C264.059 51.092 263.962 50.9245 263.838 50.7723C263.574 50.483 263.242 50.3305 262.867 50.3301C262.687 50.3299 262.506 50.3753 262.354 50.4512C262.187 50.5271 262.035 50.6334 261.896 50.7702C261.632 51.0589 261.493 51.4239 261.492 51.8346C261.492 52.0171 261.533 52.215 261.603 52.3976Z" fill="#201D67"/>
<path d="M267.087 52.4044C267.156 52.587 267.253 52.7544 267.378 52.9067C267.904 53.4701 268.82 53.4711 269.32 52.9088C269.445 52.7568 269.542 52.6048 269.612 52.4071C269.681 52.2247 269.723 52.0269 269.723 51.8444C269.724 51.4337 269.585 51.0684 269.322 50.7791C269.184 50.642 269.031 50.5354 268.865 50.4592C268.698 50.3829 268.518 50.3371 268.338 50.3369C267.963 50.3365 267.63 50.4883 267.366 50.777C267.241 50.929 267.144 51.0962 267.074 51.2787C266.991 51.4611 266.963 51.6589 266.963 51.8414C266.976 52.024 267.004 52.2218 267.087 52.4044Z" fill="#201D67"/>
<path d="M266.567 56.7725C266.304 56.4832 265.971 56.3307 265.596 56.3303C265.416 56.3301 265.236 56.3756 265.083 56.4515C264.917 56.5273 264.764 56.6337 264.625 56.7704C264.5 56.9224 264.403 57.0897 264.333 57.2721C264.264 57.4546 264.222 57.6523 264.222 57.8349C264.221 58.2456 264.373 58.6108 264.623 58.9001C265.011 59.3113 265.607 59.464 266.121 59.2212C266.301 59.1453 266.44 59.039 266.579 58.9022C266.829 58.6135 266.982 58.2333 266.982 57.8378C266.982 57.6401 266.941 57.4423 266.872 57.2749C266.789 57.0922 266.692 56.9248 266.567 56.7725Z" fill="#201D67"/>
<path d="M198.478 20.7519C199.369 20.9701 200.296 20.94 201.174 20.6644C202.052 20.3888 202.853 19.8766 203.504 19.1744C203.78 18.8624 203.934 18.445 203.935 18.0105C203.935 17.5759 203.782 17.1582 203.506 16.8456L201.926 15.0479" stroke="#1C186C" stroke-width="3.29925" stroke-linecap="round" stroke-linejoin="round"/>
<path d="M188.139 9.18983C187.949 8.19992 187.987 7.17377 188.25 6.20408C188.513 5.23439 188.992 4.35173 189.644 3.63585C189.782 3.48321 189.946 3.36211 190.127 3.27954C190.309 3.19697 190.503 3.15457 190.699 3.15478C190.895 3.15499 191.089 3.19781 191.27 3.28077C191.451 3.36373 191.615 3.48518 191.753 3.63812L193.361 5.4359" stroke="#1C186C" stroke-width="3.29925" stroke-linecap="round" stroke-linejoin="round"/>
<path d="M200.839 5.07722C200.267 4.08384 199.965 2.93273 199.968 1.75815C199.969 0.965324 200.114 0.180597 200.393 -0.550634C200.673 -1.28187 201.082 -1.94508 201.596 -2.50193C201.693 -2.59808 201.82 -2.65125 201.95 -2.65111C202.081 -2.65097 202.207 -2.59753 202.304 -2.50116C202.758 -1.99659 203.12 -1.40223 203.371 -0.749625C203.6 -0.272474 203.759 0.241403 203.841 0.772962C203.873 1.09678 203.872 1.42334 203.84 1.74709C203.589 3.22681 202.9 4.57437 201.879 5.58063C202.825 4.49083 204.068 3.76599 205.421 3.51441C205.716 3.48391 206.014 3.48423 206.309 3.51536C206.794 3.61975 207.262 3.80505 207.697 4.0648C208.294 4.37627 208.83 4.81093 209.277 5.34505C209.365 5.4515 209.414 5.58988 209.413 5.73333C209.413 5.87677 209.365 6.01505 209.277 6.12131C208.237 7.23383 206.841 7.85526 205.388 7.8523C204.323 7.8436 203.283 7.49904 202.391 6.85973" stroke="#1C186C" stroke-width="3.29925" stroke-linecap="round" stroke-linejoin="round"/>
<path d="M184.902 24.0971C185.066 24.3036 185.252 24.4877 185.456 24.6455C186.027 25.045 186.664 25.3157 187.331 25.4418C187.998 25.568 188.682 25.547 189.341 25.3802C190.9 25.1236 192.405 24.5634 193.784 23.7261C196.377 22.3562 198.557 20.198 200.064 17.5084C201.4 14.8042 202.158 11.8021 202.28 8.72947C202.28 8.51641 202.518 6.91869 202.365 6.81199L200.827 5.07539C200.73 4.90787 199.286 5.07373 199.092 5.14962C196.276 5.22726 193.515 6.02142 191.026 7.46943C188.557 9.06474 186.567 11.4166 185.301 14.2357C184.077 17.0194 182.684 21.4466 184.902 24.0971Z" stroke="#1C186C" stroke-width="3.29925" stroke-linecap="round" stroke-linejoin="round"/>
<path d="M194.562 22.343C194.002 20.2653 192.989 18.3682 191.612 16.8147C190.229 15.265 188.519 14.113 186.633 13.4608" stroke="#1C186C" stroke-width="3.29925" stroke-linecap="round" stroke-linejoin="round"/>
<path d="M188.568 22.2937C188.697 22.4411 188.852 22.5584 189.024 22.6386C189.195 22.7188 189.38 22.7603 189.566 22.7605C189.753 22.7607 189.938 22.7196 190.109 22.6398C190.281 22.56 190.436 22.443 190.566 22.2959C190.755 22.0811 190.883 21.81 190.932 21.5165C190.982 21.2229 190.952 20.9198 190.846 20.6449C190.74 20.37 190.562 20.1354 190.335 19.9704C190.108 19.8055 189.842 19.7173 189.57 19.717C189.297 19.7168 189.031 19.8043 188.804 19.9688C188.577 20.1333 188.398 20.3675 188.292 20.6421C188.185 20.9168 188.154 21.2199 188.203 21.5135C188.252 21.8072 188.379 22.0785 188.568 22.2937Z" fill="#201D67"/>
<path d="M57.9346 17.9707L52.2491 0.752073L46.5267 17.9584" stroke="#1C186C" stroke-width="3.29925" stroke-linecap="round" stroke-linejoin="round"/>
<path d="M43.6615 18.7335C43.8974 18.7337 44.1056 18.7187 44.2999 18.6885C45.8268 18.4162 46.0363 17.1685 47.9515 17.1706C50.1026 17.1729 50.1009 18.7404 52.2243 18.7427C54.3754 18.745 54.3771 17.1775 56.5004 17.1797C58.4156 17.1818 58.6086 18.4147 60.1488 18.7056C60.3291 18.7362 60.5512 18.7516 60.7871 18.7519" stroke="#1C186C" stroke-width="3.29925" stroke-linecap="round" stroke-linejoin="round"/>
<path d="M45.0884 21.0716C45.0893 20.2497 45.2013 19.4279 45.438 18.6823C46.7569 18.4098 46.9248 17.1619 48.5626 17.1636C50.4087 17.1656 50.407 18.7333 52.2253 18.7353C54.0713 18.7373 54.073 17.1695 55.8913 17.1715C57.5291 17.1733 57.7082 18.4063 59.0126 18.6969C59.2339 19.443 59.3579 20.2651 59.357 21.087C59.3524 25.4097 56.1562 28.907 52.2143 28.9028C48.2724 28.8986 45.0838 25.3943 45.0884 21.0716Z" stroke="#1C186C" stroke-width="3.29925" stroke-linecap="round" stroke-linejoin="round"/>
<path d="M45.0937 16.392L59.3623 16.4073" stroke="#1C186C" stroke-width="3.29925" stroke-linecap="round" stroke-linejoin="round"/>
<path d="M72.9512 118.957C69.1072 118.694 65.2649 116.848 62.2292 113.466C59.2213 110.115 57.5744 105.852 57.3291 101.59" stroke="#1C186C" stroke-width="3.29925" stroke-linecap="round" stroke-linejoin="round"/>
<path d="M55.7461 100.598L57.4536 100.144L74.7785 95.5206C77.1107 94.8991 79.1483 97.1842 78.5627 99.7707L77.3355 105.248L77.2519 105.598L76.1781 110.36L76.0805 110.817L74.2678 118.805L73.8215 120.752C73.4032 122.624 71.7504 123.824 70.0576 123.518C65.8949 122.768 61.9836 120.664 58.8647 117.19C55.7597 113.748 53.8908 109.408 53.2157 104.796C52.9402 102.909 54.0524 101.053 55.7461 100.598Z" stroke="#1C186C" stroke-width="3.29925" stroke-linecap="round" stroke-linejoin="round"/>
<path d="M66.2054 105.477C64.9789 105.476 63.9834 106.579 63.9819 107.941C63.9805 109.303 64.9736 110.408 66.2001 110.409C67.4266 110.41 68.4221 109.307 68.4235 107.945C68.425 106.584 67.4319 105.479 66.2054 105.477Z" stroke="#1C186C" stroke-width="3.29925" stroke-linecap="round" stroke-linejoin="round"/>
<path d="M74.4184 106.417C75.1828 105.566 76.2796 105.293 77.2508 105.629L75.8561 111.837C75.3289 111.7 74.8295 111.425 74.4136 110.968C73.2768 109.704 73.2789 107.664 74.4184 106.417Z" stroke="#1C186C" stroke-width="3.29925" stroke-linecap="round" stroke-linejoin="round"/>
<path d="M72.6811 97.7392C72.8884 98.6222 72.6791 99.5961 72.0677 100.28C71.1366 101.314 69.6376 101.313 68.7087 100.277C68.4037 99.9416 68.196 99.5304 68.0993 99.0889" stroke="#1C186C" stroke-width="3.29925" stroke-linecap="round" stroke-linejoin="round"/>
<path d="M125.527 62.5054L139.755 46.9365C141.269 45.2793 141.272 42.6008 139.761 40.9403C138.25 39.2798 135.808 39.2772 134.293 40.9344L120.065 56.5033C118.551 58.1605 118.548 60.839 120.059 62.4995C121.57 64.16 124.012 64.1626 125.527 62.5054Z" stroke="#1C186C" stroke-width="3.29925" stroke-linecap="round" stroke-linejoin="round"/>
<path d="M136.777 44.8606C135.137 46.6549 134.555 46.015 132.902 47.8093C131.262 49.6036 131.844 50.2435 130.204 52.053C128.564 53.8473 127.968 53.2073 126.329 55.0016C124.689 56.7959 125.271 57.4511 123.631 59.2453" stroke="#1C186C" stroke-width="3.29925" stroke-linecap="round" stroke-linejoin="round"/>
<path d="M130.439 64.3081L141.388 52.3274C143.208 50.3357 143.212 47.1246 141.396 45.1289L123.889 64.2859C125.691 66.2967 128.633 66.2999 130.439 64.3081Z" stroke="#1C186C" stroke-width="3.29925" stroke-linecap="round" stroke-linejoin="round"/>
<path d="M129.383 39.1348L118.434 51.1155C116.614 53.1072 116.611 56.3183 118.427 58.314L135.934 39.157C134.132 37.1462 131.19 37.143 129.383 39.1348Z" stroke="#1C186C" stroke-width="3.29925" stroke-linecap="round" stroke-linejoin="round"/>
<path d="M199.251 97.1201L213.129 97.135C215.6 97.1377 217.596 99.3313 217.593 102.04L217.59 104.962L194.774 104.938L194.777 102.016C194.78 99.3068 196.781 97.1174 199.251 97.1201Z" stroke="#1C186C" stroke-width="3.29925" stroke-linecap="round" stroke-linejoin="round"/>
<path d="M195.48 109.624L216.88 109.647C218.06 109.649 219.019 108.599 219.02 107.306C219.021 106.012 218.065 104.961 216.885 104.96L195.485 104.937C194.306 104.936 193.347 105.985 193.345 107.278C193.344 108.572 194.301 109.623 195.48 109.624Z" stroke="#1C186C" stroke-width="3.29925" stroke-linecap="round" stroke-linejoin="round"/>
<path d="M205.428 122.141L206.899 122.143C212.797 122.149 217.577 116.919 217.584 110.451L217.585 109.645L194.769 109.62L194.768 110.427C194.761 116.895 199.53 122.135 205.428 122.141Z" stroke="#1C186C" stroke-width="3.29925" stroke-linecap="round" stroke-linejoin="round"/>
<path d="M217.746 104.576C217.206 103.936 216.818 103.068 215.805 103.067C214.792 103.066 214.403 103.933 213.861 104.572" stroke="#1C186C" stroke-width="3.29925" stroke-linecap="round" stroke-linejoin="round"/>
<path d="M204.715 104.562C204.174 103.922 203.787 103.055 202.774 103.053C201.747 103.052 201.357 103.919 200.816 104.558" stroke="#1C186C" stroke-width="3.29925" stroke-linecap="round" stroke-linejoin="round"/>
<path d="M196.234 103.062C197.247 103.063 197.634 103.93 198.175 104.57" stroke="#1C186C" stroke-width="3.29925" stroke-linecap="round" stroke-linejoin="round"/>
<path d="M211.223 104.569C210.682 103.929 210.295 103.061 209.282 103.06C208.269 103.059 207.879 103.926 207.337 104.565" stroke="#1C186C" stroke-width="3.29925" stroke-linecap="round" stroke-linejoin="round"/>
</g>
</svg>
