<svg width="636" height="200" viewBox="0 0 636 200" fill="none" xmlns="http://www.w3.org/2000/svg">
<g opacity="0.25">
<path d="M105.473 100.657C102.711 103.335 98.95 104.964 94.8004 104.933C90.6786 104.903 86.9176 103.244 84.1143 100.535" stroke="#1C186C" stroke-width="3.29925" stroke-linecap="round" stroke-linejoin="round"/>
<path d="M84.7796 106.82C87.7634 108.798 91.1913 109.924 94.8274 109.955C99.088 109.985 103.043 108.494 106.332 105.907C107.665 104.856 108.039 102.802 107.179 101.219L106.277 99.5603L102.544 92.8031C102.544 92.8031 99.8929 87.9939 97.3948 83.4587C96.1874 81.2672 93.384 81.2368 92.1905 83.3979L83.3085 99.4385L82.4342 101.021C81.5737 102.589 81.9623 104.674 83.3224 105.739C83.7803 106.135 84.28 106.485 84.7796 106.82Z" stroke="#1C186C" stroke-width="3.29925" stroke-linecap="round" stroke-linejoin="round"/>
<path d="M89.8438 97.5084C89.5109 97.3563 89.1363 97.3563 88.8034 97.5084C88.6231 97.5844 88.4844 97.6909 88.3457 97.8278C88.096 98.1169 87.9434 98.4971 87.9434 98.8927C87.9434 99.3034 88.0821 99.6685 88.3457 99.9575C88.6092 100.247 88.9422 100.399 89.3167 100.399C89.6912 100.399 90.0242 100.247 90.2877 99.9575C90.5513 99.6685 90.69 99.2882 90.69 98.8927C90.69 98.4971 90.5374 98.1169 90.2877 97.8278C90.1629 97.6757 90.0103 97.5692 89.8438 97.5084Z" fill="#201D67"/>
<path d="M95.3116 98.9986C94.9787 98.8465 94.6041 98.8465 94.2712 98.9986C94.1047 99.0747 93.9521 99.1811 93.8134 99.3181C93.5637 99.6071 93.4111 99.9874 93.4111 100.383C93.4111 100.794 93.5498 101.159 93.8134 101.448C94.077 101.737 94.4099 101.889 94.7845 101.889C95.159 101.889 95.4919 101.737 95.7555 101.448C96.0191 101.159 96.1578 100.794 96.1578 100.383C96.1578 99.9874 96.0052 99.6071 95.7555 99.3181C95.6307 99.1811 95.4919 99.0747 95.3116 98.9986Z" fill="#201D67"/>
<path d="M101.253 97.8115C100.739 97.2487 99.8237 97.2487 99.3105 97.8115C99.0608 98.1006 98.9082 98.4809 98.9082 98.8764C98.9082 99.2871 99.0469 99.6522 99.3105 99.9412C99.5741 100.23 99.907 100.382 100.282 100.382C100.462 100.382 100.642 100.337 100.795 100.261C100.961 100.185 101.114 100.078 101.253 99.9412C101.516 99.6522 101.655 99.2871 101.655 98.8764C101.641 98.4961 101.488 98.1006 101.253 97.8115Z" fill="#201D67"/>
<path d="M98.7949 92.2992C98.7255 92.1015 98.6284 91.9494 98.5036 91.7973C97.9903 91.2344 97.0747 91.2344 96.5615 91.7973C96.4366 91.9494 96.3395 92.1015 96.2702 92.2992C96.2008 92.4818 96.1592 92.6796 96.1592 92.8621C96.1592 93.0599 96.2008 93.2576 96.2702 93.4249C96.3395 93.6075 96.4366 93.7748 96.5615 93.9269C96.8251 94.216 97.158 94.3681 97.5325 94.3681C97.7129 94.3681 97.8932 94.3225 98.0458 94.2464C98.2122 94.1703 98.3648 94.0639 98.5036 93.9269C98.7671 93.6379 98.9059 93.2728 98.9059 92.8621C98.9059 92.6796 98.8642 92.4818 98.7949 92.2992Z" fill="#201D67"/>
<path d="M93.3144 92.2992C93.245 92.1167 93.1479 91.9494 93.0231 91.7973C92.496 91.2344 91.5804 91.2344 91.081 91.7973C90.9562 91.9494 90.8591 92.1015 90.7897 92.2992C90.7203 92.4818 90.6787 92.6796 90.6787 92.8621C90.6787 93.2728 90.8174 93.6379 91.081 93.9269C91.2197 94.0639 91.3723 94.1703 91.5388 94.2464C91.7052 94.3225 91.8856 94.3681 92.0659 94.3681C92.4405 94.3681 92.7734 94.216 93.037 93.9269C93.1618 93.7748 93.2589 93.6075 93.3283 93.4249C93.4115 93.2424 93.4393 93.0446 93.4393 92.8621C93.4254 92.6796 93.3976 92.4818 93.3144 92.2992Z" fill="#201D67"/>
<path d="M93.8273 87.9336C94.0909 88.2226 94.4238 88.3747 94.7983 88.3747C94.9787 88.3747 95.159 88.3291 95.3116 88.253C95.4781 88.177 95.6307 88.0705 95.7694 87.9336C95.8942 87.7814 95.9913 87.6141 96.0607 87.4316C96.1301 87.249 96.1717 87.0513 96.1717 86.8687C96.1717 86.458 96.0191 86.0929 95.7694 85.8039C95.381 85.3932 94.7845 85.241 94.2712 85.4844C94.0909 85.5605 93.9521 85.667 93.8134 85.8039C93.5637 86.0929 93.4111 86.4732 93.4111 86.8687C93.4111 87.0665 93.4528 87.2642 93.5221 87.4316C93.6053 87.6141 93.7025 87.7814 93.8273 87.9336Z" fill="#201D67"/>
<path d="M436.517 33.3573C434.837 37.2534 431.229 39.9471 427.038 39.9471C421.251 39.9471 416.546 34.7879 416.546 28.4417C416.546 22.7955 420.265 18.0928 425.178 17.1188C425.345 20.5431 427.635 23.3586 430.632 23.9825C430.577 24.3934 430.535 24.8196 430.535 25.2457C430.535 29.233 433.103 32.566 436.517 33.3573Z" stroke="#1C186C" stroke-width="3.29925" stroke-linecap="round" stroke-linejoin="round"/>
<path d="M422.7 22.1702C421.853 22.1702 421.159 22.9311 421.159 23.8593C421.159 24.7876 421.853 25.5484 422.7 25.5484C423.546 25.5484 424.24 24.7876 424.24 23.8593C424.24 22.9159 423.546 22.1702 422.7 22.1702Z" fill="#201D67"/>
<path d="M419.298 13.3583C418.452 13.3583 417.758 14.1191 417.758 15.0474C417.758 15.9756 418.452 16.7365 419.298 16.7365C420.145 16.7365 420.838 15.9756 420.838 15.0474C420.825 14.1039 420.145 13.3583 419.298 13.3583Z" fill="#201D67"/>
<path d="M427.18 27.3594C426.333 27.3594 425.64 28.1202 425.64 29.0485C425.64 29.9767 426.333 30.7376 427.18 30.7376C428.026 30.7376 428.72 29.9767 428.72 29.0485C428.72 28.105 428.026 27.3594 427.18 27.3594Z" fill="#201D67"/>
<path d="M428.51 34.1344C428.51 34.1344 428.219 34.3169 427.845 34.5603C427.484 34.7885 427.179 34.9863 427.179 34.9863C427.179 34.9863 427.47 34.8037 427.845 34.5603C428.205 34.3169 428.51 34.1344 428.51 34.1344Z" stroke="#1C186C" stroke-width="3.29925" stroke-linecap="round" stroke-linejoin="round"/>
<path d="M421.445 29.7655C421.445 29.7655 421.764 29.9176 422.153 30.1002C422.541 30.2827 422.86 30.4348 422.86 30.4348C422.86 30.4348 422.541 30.2827 422.153 30.1002C421.764 29.9176 421.445 29.7655 421.445 29.7655Z" stroke="#1C186C" stroke-width="3.29925" stroke-linecap="round" stroke-linejoin="round"/>
<path d="M414.562 20.1899C414.562 20.1899 414.811 19.9313 415.116 19.6118C415.422 19.2924 415.671 19.0338 415.671 19.0338C415.671 19.0338 415.422 19.2924 415.116 19.6118C414.811 19.9313 414.562 20.1899 414.562 20.1899Z" stroke="#1C186C" stroke-width="3.29925" stroke-linecap="round" stroke-linejoin="round"/>
<path d="M413.16 28.6697C411.717 26.8739 410.843 24.5302 410.843 21.9582C410.843 16.3425 414.992 11.7921 420.113 11.7921C424.249 11.7921 427.76 14.7597 428.954 18.8688" stroke="#1C186C" stroke-width="3.29925" stroke-linecap="round" stroke-linejoin="round"/>
<path d="M151.138 145.899C150.246 145.682 149.32 145.713 148.442 145.99C147.564 146.266 146.764 146.779 146.113 147.482C145.838 147.795 145.684 148.212 145.684 148.647C145.684 149.081 145.838 149.499 146.113 149.811L147.696 151.607" stroke="#1C186C" stroke-width="3.29925" stroke-linecap="round" stroke-linejoin="round"/>
<path d="M161.488 157.449C161.679 158.439 161.642 159.465 161.38 160.435C161.118 161.405 160.64 162.288 159.989 163.005C159.851 163.158 159.687 163.279 159.506 163.362C159.325 163.444 159.131 163.487 158.934 163.487C158.738 163.487 158.544 163.444 158.363 163.362C158.182 163.279 158.018 163.158 157.88 163.005L156.27 161.209" stroke="#1C186C" stroke-width="3.29925" stroke-linecap="round" stroke-linejoin="round"/>
<path d="M148.792 161.575C149.365 162.568 149.668 163.718 149.667 164.893C149.666 165.686 149.523 166.471 149.244 167.202C148.965 167.934 148.557 168.597 148.043 169.155C147.946 169.251 147.82 169.304 147.689 169.304C147.558 169.304 147.432 169.251 147.335 169.155C146.881 168.651 146.518 168.057 146.266 167.404C146.037 166.927 145.877 166.414 145.794 165.882C145.762 165.558 145.762 165.232 145.794 164.908C146.044 163.428 146.732 162.08 147.751 161.072C146.806 162.163 145.564 162.889 144.212 163.142C143.916 163.173 143.619 163.173 143.324 163.142C142.838 163.039 142.37 162.854 141.936 162.595C141.338 162.284 140.801 161.85 140.353 161.316C140.265 161.21 140.217 161.071 140.217 160.928C140.217 160.784 140.265 160.646 140.353 160.54C141.392 159.426 142.787 158.803 144.24 158.805C145.305 158.812 146.346 159.156 147.238 159.794" stroke="#1C186C" stroke-width="3.29925" stroke-linecap="round" stroke-linejoin="round"/>
<path d="M164.71 142.536C164.546 142.329 164.359 142.145 164.155 141.988C163.584 141.589 162.946 141.319 162.279 141.194C161.612 141.068 160.929 141.09 160.269 141.257C158.71 141.516 157.206 142.077 155.828 142.916C153.236 144.289 151.059 146.45 149.555 149.141C148.222 151.846 147.467 154.849 147.349 157.922C147.349 158.135 147.113 159.733 147.265 159.84L148.806 161.575C148.903 161.742 150.346 161.575 150.541 161.498C153.356 161.418 156.117 160.621 158.604 159.17C161.071 157.572 163.058 155.218 164.322 152.398C165.543 149.613 166.931 145.184 164.71 142.536Z" stroke="#1C186C" stroke-width="3.29925" stroke-linecap="round" stroke-linejoin="round"/>
<path d="M155.05 144.301C155.613 146.378 156.627 148.274 158.006 149.826C159.391 151.374 161.102 152.524 162.989 153.174" stroke="#1C186C" stroke-width="3.29925" stroke-linecap="round" stroke-linejoin="round"/>
<path d="M161.045 144.346C160.916 144.199 160.76 144.082 160.589 144.002C160.417 143.922 160.232 143.881 160.046 143.881C159.859 143.881 159.675 143.922 159.503 144.002C159.331 144.082 159.176 144.199 159.047 144.346C158.858 144.561 158.731 144.833 158.681 145.126C158.632 145.42 158.662 145.723 158.769 145.998C158.875 146.272 159.053 146.507 159.28 146.672C159.507 146.836 159.774 146.924 160.046 146.924C160.318 146.924 160.584 146.836 160.811 146.672C161.039 146.507 161.216 146.272 161.323 145.998C161.429 145.723 161.46 145.42 161.41 145.126C161.361 144.833 161.234 144.561 161.045 144.346Z" fill="#201D67"/>
<path d="M291.688 153.614L297.392 170.826L303.096 153.614" stroke="#1C186C" stroke-width="3.29925" stroke-linecap="round" stroke-linejoin="round"/>
<path d="M305.954 152.838C305.718 152.838 305.51 152.853 305.315 152.884C303.789 153.158 303.581 154.406 301.665 154.406C299.514 154.406 299.514 152.838 297.391 152.838C295.24 152.838 295.24 154.406 293.116 154.406C291.201 154.406 291.007 153.173 289.467 152.884C289.286 152.853 289.064 152.838 288.828 152.838" stroke="#1C186C" stroke-width="3.29925" stroke-linecap="round" stroke-linejoin="round"/>
<path d="M304.525 150.495C304.525 151.317 304.414 152.139 304.178 152.885C302.86 153.159 302.693 154.407 301.055 154.407C299.209 154.407 299.209 152.839 297.391 152.839C295.545 152.839 295.545 154.407 293.727 154.407C292.089 154.407 291.909 153.174 290.604 152.885C290.382 152.139 290.257 151.317 290.257 150.495C290.257 146.173 293.449 142.672 297.391 142.672C301.333 142.672 304.525 146.173 304.525 150.495Z" stroke="#1C186C" stroke-width="3.29925" stroke-linecap="round" stroke-linejoin="round"/>
<path d="M304.526 155.184H290.258" stroke="#1C186C" stroke-width="3.29925" stroke-linecap="round" stroke-linejoin="round"/>
<path d="M438.534 155.831H428.263V157.444H438.534V155.831Z" stroke="#1C186C" stroke-width="3.29925" stroke-linecap="round" stroke-linejoin="round"/>
<path d="M444.749 142.958C445.692 142.958 446.414 143.932 446.192 144.936C444.735 151.191 439.558 155.818 433.396 155.818C427.234 155.818 422.058 151.191 420.601 144.936C420.365 143.932 421.086 142.958 422.044 142.958H444.749V142.958Z" stroke="#1C186C" stroke-width="3.29925" stroke-linecap="round" stroke-linejoin="round"/>
<path d="M427.859 142.964C429.477 142.964 430.788 141.526 430.788 139.752C430.788 137.978 429.477 136.54 427.859 136.54C426.242 136.54 424.931 137.978 424.931 139.752C424.931 141.526 426.242 142.964 427.859 142.964Z" stroke="#1C186C" stroke-width="3.29925" stroke-linecap="round" stroke-linejoin="round"/>
<path d="M438.935 142.72C440.552 142.72 441.863 141.282 441.863 139.508C441.863 137.734 440.552 136.297 438.935 136.297C437.317 136.297 436.006 137.734 436.006 139.508C436.006 141.282 437.317 142.72 438.935 142.72Z" stroke="#1C186C" stroke-width="3.29925" stroke-linecap="round" stroke-linejoin="round"/>
<path d="M433.855 142.735C435.074 142.735 436.062 141.652 436.062 140.315C436.062 138.979 435.074 137.895 433.855 137.895C432.637 137.895 431.648 138.979 431.648 140.315C431.648 141.652 432.637 142.735 433.855 142.735Z" stroke="#1C186C" stroke-width="3.29925" stroke-linecap="round" stroke-linejoin="round"/>
<path d="M426.264 136.75L421.656 131.697" stroke="#1C186C" stroke-width="3.29925" stroke-linecap="round" stroke-linejoin="round"/>
<path d="M422.403 147.754H444.386" stroke="#1C186C" stroke-width="3.29925" stroke-linecap="round" stroke-linejoin="round"/>
<path d="M379.267 80.6545H354.286C354.286 83.1808 356.146 85.2201 358.45 85.2201H375.103C377.407 85.2201 379.267 83.1808 379.267 80.6545Z" stroke="#1C186C" stroke-width="3.29925" stroke-linecap="round" stroke-linejoin="round"/>
<path d="M366.775 66.9551C360.641 66.9551 355.673 72.4035 355.673 79.1302V80.6521H377.878V79.1302C377.878 72.4035 372.91 66.9551 366.775 66.9551Z" stroke="#1C186C" stroke-width="3.29925" stroke-linecap="round" stroke-linejoin="round"/>
<path d="M366.775 68.0991C368.116 68.0991 369.204 66.9065 369.204 65.4354C369.204 63.9643 368.116 62.7718 366.775 62.7718C365.433 62.7718 364.346 63.9643 364.346 65.4354C364.346 66.9065 365.433 68.0991 366.775 68.0991Z" fill="#201D67"/>
<path d="M279.644 59.4201C283.488 59.6788 287.332 61.5203 290.371 64.8989C293.383 68.247 295.034 72.5083 295.284 76.7696" stroke="#1C186C" stroke-width="3.29925" stroke-linecap="round" stroke-linejoin="round"/>
<path d="M296.868 77.7575L295.161 78.2141L277.841 82.8558C275.51 83.4798 273.47 81.197 274.053 78.6098L275.274 73.131L275.357 72.781L276.426 68.0175L276.523 67.5609L278.327 59.571L278.771 57.623C279.188 55.7511 280.839 54.5488 282.532 54.8532C286.696 55.5989 290.609 57.6991 293.732 61.169C296.841 64.6084 298.714 68.9458 299.394 73.5571C299.672 75.4443 298.562 77.301 296.868 77.7575Z" stroke="#1C186C" stroke-width="3.29925" stroke-linecap="round" stroke-linejoin="round"/>
<path d="M286.402 72.8902C287.629 72.8902 288.623 71.7862 288.623 70.4244C288.623 69.0626 287.629 67.9586 286.402 67.9586C285.176 67.9586 284.182 69.0626 284.182 70.4244C284.182 71.7862 285.176 72.8902 286.402 72.8902Z" stroke="#1C186C" stroke-width="3.29925" stroke-linecap="round" stroke-linejoin="round"/>
<path d="M278.189 71.9613C277.426 72.8137 276.329 73.0877 275.357 72.7528L276.745 66.5427C277.273 66.6797 277.773 66.9537 278.189 67.4103C279.327 68.6736 279.327 70.7132 278.189 71.9613Z" stroke="#1C186C" stroke-width="3.29925" stroke-linecap="round" stroke-linejoin="round"/>
<path d="M279.933 80.6355C279.725 79.7527 279.933 78.7786 280.544 78.0936C281.473 77.0586 282.972 77.0586 283.902 78.0936C284.208 78.4285 284.416 78.8395 284.513 79.2809" stroke="#1C186C" stroke-width="3.29925" stroke-linecap="round" stroke-linejoin="round"/>
<path d="M224.047 82.04L209.836 97.6241C208.323 99.2829 208.323 101.961 209.836 103.62C211.348 105.279 213.791 105.279 215.304 103.62L229.515 88.0362C231.028 86.3773 231.028 83.6988 229.515 82.04C228.002 80.3811 225.56 80.3811 224.047 82.04Z" stroke="#1C186C" stroke-width="3.29925" stroke-linecap="round" stroke-linejoin="round"/>
<path d="M212.817 99.6986C214.455 97.9026 215.038 98.5418 216.69 96.7458C218.328 94.9497 217.745 94.3105 219.383 92.4992C221.02 90.7031 221.617 91.3424 223.255 89.5463C224.893 87.7503 224.31 87.0958 225.948 85.2997" stroke="#1C186C" stroke-width="3.29925" stroke-linecap="round" stroke-linejoin="round"/>
<path d="M219.132 80.2463L208.196 92.2388C206.378 94.2325 206.378 97.4436 208.196 99.4373L225.682 80.2616C223.878 78.2527 220.936 78.2527 219.132 80.2463Z" stroke="#1C186C" stroke-width="3.29925" stroke-linecap="round" stroke-linejoin="round"/>
<path d="M220.216 105.416L231.152 93.4237C232.97 91.43 232.97 88.2188 231.152 86.2252L213.665 105.401C215.469 107.41 218.411 107.41 220.216 105.416Z" stroke="#1C186C" stroke-width="3.29925" stroke-linecap="round" stroke-linejoin="round"/>
<path d="M150.277 47.5109H136.398C133.928 47.5109 131.93 45.3194 131.93 42.6104V39.6884H154.745V42.6104C154.745 45.3194 152.747 47.5109 150.277 47.5109Z" stroke="#1C186C" stroke-width="3.29925" stroke-linecap="round" stroke-linejoin="round"/>
<path d="M154.037 34.9983H132.637C131.458 34.9983 130.5 36.0484 130.5 37.342C130.5 38.6356 131.458 39.6857 132.637 39.6857H154.037C155.217 39.6857 156.175 38.6356 156.175 37.342C156.175 36.0484 155.217 34.9983 154.037 34.9983Z" stroke="#1C186C" stroke-width="3.29925" stroke-linecap="round" stroke-linejoin="round"/>
<path d="M144.073 22.4903H142.602C136.704 22.4903 131.93 27.7256 131.93 34.1936V35.0002H154.745V34.1936C154.745 27.7256 149.971 22.4903 144.073 22.4903Z" stroke="#1C186C" stroke-width="3.29925" stroke-linecap="round" stroke-linejoin="round"/>
<path d="M131.776 40.0693C132.318 40.7084 132.706 41.5758 133.719 41.5758C134.732 41.5758 135.121 40.7084 135.662 40.0693" stroke="#1C186C" stroke-width="3.29925" stroke-linecap="round" stroke-linejoin="round"/>
<path d="M144.808 40.0695C145.349 40.7086 145.737 41.576 146.75 41.576C147.777 41.576 148.166 40.7086 148.707 40.0695" stroke="#1C186C" stroke-width="3.29925" stroke-linecap="round" stroke-linejoin="round"/>
<path d="M153.288 41.5598C152.275 41.5598 151.887 40.6927 151.346 40.0538" stroke="#1C186C" stroke-width="3.29925" stroke-linecap="round" stroke-linejoin="round"/>
<path d="M138.299 40.0695C138.84 40.7086 139.229 41.576 140.242 41.576C141.255 41.576 141.643 40.7086 142.184 40.0695" stroke="#1C186C" stroke-width="3.29925" stroke-linecap="round" stroke-linejoin="round"/>
<path d="M501.723 68.6921C498.961 71.3706 495.2 72.9991 491.05 72.9686C486.929 72.9382 483.168 71.2793 480.364 68.5704" stroke="#1C186C" stroke-width="3.29925" stroke-linecap="round" stroke-linejoin="round"/>
<path d="M481.03 74.8541C484.013 76.8325 487.441 77.9587 491.077 77.9892C495.338 78.0196 499.293 76.5281 502.582 73.9409C503.915 72.8908 504.289 70.8363 503.429 69.2535L502.527 67.5947L498.794 60.8375C498.794 60.8375 496.143 56.0284 493.645 51.4932C492.437 49.3016 489.634 49.2712 488.441 51.4323L479.558 67.4729L478.684 69.0557C477.824 70.6233 478.212 72.7082 479.572 73.7735C480.03 74.1692 480.53 74.5193 481.03 74.8541Z" stroke="#1C186C" stroke-width="3.29925" stroke-linecap="round" stroke-linejoin="round"/>
<path d="M486.096 65.5399C485.763 65.3878 485.388 65.3878 485.055 65.5399C484.875 65.616 484.736 65.7225 484.598 65.8594C484.348 66.1484 484.195 66.5287 484.195 66.9242C484.195 67.3349 484.334 67.7 484.598 67.9891C484.861 68.2781 485.194 68.4302 485.569 68.4302C485.943 68.4302 486.276 68.2781 486.54 67.9891C486.803 67.7 486.942 67.3197 486.942 66.9242C486.942 66.5287 486.789 66.1484 486.54 65.8594C486.415 65.7073 486.262 65.6008 486.096 65.5399Z" fill="#201D67"/>
<path d="M491.565 67.0349C491.232 66.8828 490.857 66.8828 490.524 67.0349C490.358 67.111 490.205 67.2175 490.066 67.3544C489.817 67.6434 489.664 68.0237 489.664 68.4192C489.664 68.83 489.803 69.1951 490.066 69.4841C490.33 69.7731 490.663 69.9252 491.037 69.9252C491.412 69.9252 491.745 69.7731 492.008 69.4841C492.272 69.1951 492.411 68.83 492.411 68.4192C492.411 68.0237 492.258 67.6434 492.008 67.3544C491.884 67.2175 491.745 67.111 491.565 67.0349Z" fill="#201D67"/>
<path d="M497.505 65.845C496.991 65.2822 496.076 65.2822 495.562 65.845C495.313 66.1341 495.16 66.5144 495.16 66.9099C495.16 67.3206 495.299 67.6857 495.562 67.9747C495.826 68.2638 496.159 68.4159 496.533 68.4159C496.714 68.4159 496.894 68.3703 497.047 68.2942C497.213 68.2181 497.366 68.1116 497.505 67.9747C497.768 67.6857 497.907 67.3206 497.907 66.9099C497.893 66.5296 497.74 66.1341 497.505 65.845Z" fill="#201D67"/>
<path d="M495.045 60.3347C494.976 60.1369 494.878 59.9848 494.754 59.8327C494.24 59.2699 493.325 59.2699 492.811 59.8327C492.687 59.9848 492.59 60.1369 492.52 60.3347C492.451 60.5172 492.409 60.715 492.409 60.8976C492.409 61.0953 492.451 61.2931 492.52 61.4604C492.59 61.643 492.687 61.8103 492.811 61.9624C493.075 62.2514 493.408 62.4036 493.783 62.4036C493.963 62.4036 494.143 62.3579 494.296 62.2819C494.462 62.2058 494.615 62.0993 494.754 61.9624C495.017 61.6734 495.156 61.3083 495.156 60.8976C495.156 60.715 495.114 60.5172 495.045 60.3347Z" fill="#201D67"/>
<path d="M489.563 60.3347C489.494 60.1522 489.397 59.9848 489.272 59.8327C488.745 59.2699 487.829 59.2699 487.33 59.8327C487.205 59.9848 487.108 60.1369 487.039 60.3347C486.969 60.5172 486.928 60.715 486.928 60.8976C486.928 61.3083 487.066 61.6734 487.33 61.9624C487.469 62.0993 487.621 62.2058 487.788 62.2819C487.954 62.3579 488.135 62.4036 488.315 62.4036C488.689 62.4036 489.022 62.2514 489.286 61.9624C489.411 61.8103 489.508 61.643 489.577 61.4604C489.661 61.2779 489.688 61.0801 489.688 60.8976C489.674 60.715 489.647 60.5172 489.563 60.3347Z" fill="#201D67"/>
<path d="M490.08 55.967C490.344 56.256 490.677 56.4082 491.051 56.4082C491.232 56.4082 491.412 56.3625 491.565 56.2865C491.731 56.2104 491.884 56.1039 492.022 55.967C492.147 55.8149 492.244 55.6476 492.314 55.465C492.383 55.2825 492.425 55.0847 492.425 54.9022C492.425 54.4914 492.272 54.1264 492.022 53.8373C491.634 53.4266 491.037 53.2745 490.524 53.5179C490.344 53.5939 490.205 53.7004 490.066 53.8373C489.817 54.1264 489.664 54.5067 489.664 54.9022C489.664 55.0999 489.706 55.2977 489.775 55.465C489.858 55.6476 489.955 55.8149 490.08 55.967Z" fill="#201D67"/>
<path d="M369.899 182.502C368.22 186.398 364.612 189.091 360.421 189.091C354.633 189.091 349.929 183.932 349.929 177.586C349.929 171.94 353.648 167.237 358.561 166.263C358.727 169.687 361.017 172.503 364.015 173.127C363.96 173.538 363.918 173.964 363.918 174.39C363.918 178.377 366.485 181.71 369.899 182.502Z" stroke="#1C186C" stroke-width="3.29925" stroke-linecap="round" stroke-linejoin="round"/>
<path d="M356.075 171.318C355.228 171.318 354.534 172.078 354.534 173.007C354.534 173.935 355.228 174.696 356.075 174.696C356.921 174.696 357.615 173.935 357.615 173.007C357.615 172.063 356.921 171.318 356.075 171.318Z" fill="#201D67"/>
<path d="M352.673 162.507C351.827 162.507 351.133 163.268 351.133 164.196C351.133 165.124 351.827 165.885 352.673 165.885C353.52 165.885 354.213 165.124 354.213 164.196C354.2 163.252 353.52 162.507 352.673 162.507Z" fill="#201D67"/>
<path d="M360.556 176.51C359.709 176.51 359.016 177.271 359.016 178.199C359.016 179.127 359.709 179.888 360.556 179.888C361.402 179.888 362.096 179.127 362.096 178.199C362.096 177.255 361.402 176.51 360.556 176.51Z" fill="#201D67"/>
<path d="M361.893 183.276C361.893 183.276 361.602 183.458 361.227 183.702C360.867 183.93 360.562 184.128 360.562 184.128C360.562 184.128 360.853 183.945 361.227 183.702C361.588 183.458 361.893 183.276 361.893 183.276Z" stroke="#1C186C" stroke-width="3.29925" stroke-linecap="round" stroke-linejoin="round"/>
<path d="M354.828 178.911C354.828 178.911 355.147 179.063 355.536 179.245C355.924 179.428 356.243 179.58 356.243 179.58C356.243 179.58 355.924 179.428 355.536 179.245C355.147 179.063 354.828 178.911 354.828 178.911Z" stroke="#1C186C" stroke-width="3.29925" stroke-linecap="round" stroke-linejoin="round"/>
<path d="M347.944 169.335C347.944 169.335 348.194 169.076 348.499 168.757C348.804 168.438 349.054 168.179 349.054 168.179C349.054 168.179 348.804 168.438 348.499 168.757C348.194 169.076 347.944 169.335 347.944 169.335Z" stroke="#1C186C" stroke-width="3.29925" stroke-linecap="round" stroke-linejoin="round"/>
<path d="M346.543 177.813C345.1 176.017 344.226 173.673 344.226 171.101C344.226 165.486 348.375 160.935 353.496 160.935C357.632 160.935 361.143 163.903 362.337 168.012" stroke="#1C186C" stroke-width="3.29925" stroke-linecap="round" stroke-linejoin="round"/>
<path d="M553.578 113.94C552.687 113.722 551.76 113.754 550.882 114.03C550.005 114.307 549.204 114.82 548.554 115.523C548.278 115.835 548.124 116.252 548.124 116.687C548.124 117.122 548.278 117.539 548.554 117.851L550.136 119.647" stroke="#1C186C" stroke-width="3.29925" stroke-linecap="round" stroke-linejoin="round"/>
<path d="M563.929 125.49C564.119 126.48 564.082 127.506 563.821 128.476C563.559 129.446 563.081 130.329 562.43 131.046C562.292 131.199 562.127 131.32 561.946 131.403C561.765 131.486 561.571 131.528 561.375 131.528C561.179 131.528 560.985 131.486 560.803 131.403C560.622 131.32 560.458 131.199 560.32 131.046L558.71 129.25" stroke="#1C186C" stroke-width="3.29925" stroke-linecap="round" stroke-linejoin="round"/>
<path d="M551.233 129.614C551.805 130.607 552.108 131.758 552.107 132.932C552.107 133.725 551.963 134.51 551.684 135.241C551.406 135.973 550.997 136.637 550.483 137.194C550.386 137.29 550.26 137.344 550.129 137.344C549.998 137.344 549.872 137.29 549.775 137.194C549.321 136.69 548.959 136.096 548.706 135.444C548.477 134.967 548.318 134.453 548.235 133.922C548.203 133.598 548.203 133.271 548.235 132.947C548.484 131.467 549.172 130.119 550.192 129.112C549.246 130.203 548.005 130.929 546.652 131.182C546.357 131.213 546.059 131.213 545.764 131.182C545.278 131.078 544.81 130.893 544.376 130.634C543.779 130.323 543.241 129.889 542.794 129.355C542.706 129.249 542.657 129.111 542.657 128.967C542.657 128.824 542.706 128.685 542.794 128.579C543.832 127.465 545.227 126.842 546.68 126.844C547.745 126.851 548.786 127.195 549.678 127.833" stroke="#1C186C" stroke-width="3.29925" stroke-linecap="round" stroke-linejoin="round"/>
<path d="M567.151 110.576C566.986 110.37 566.8 110.186 566.595 110.028C566.025 109.629 565.387 109.359 564.72 109.234C564.052 109.108 563.369 109.13 562.71 109.298C561.151 109.556 559.647 110.118 558.269 110.957C555.677 112.329 553.499 114.49 551.996 117.181C550.662 119.887 549.908 122.89 549.789 125.962C549.789 126.175 549.553 127.773 549.706 127.88L551.246 129.615C551.343 129.782 552.787 129.615 552.981 129.539C555.797 129.458 558.557 128.661 561.044 127.21C563.511 125.612 565.499 123.258 566.762 120.438C567.983 117.653 569.371 113.224 567.151 110.576Z" stroke="#1C186C" stroke-width="3.29925" stroke-linecap="round" stroke-linejoin="round"/>
<path d="M557.493 112.341C558.056 114.418 559.071 116.314 560.45 117.866C561.834 119.414 563.546 120.564 565.433 121.215" stroke="#1C186C" stroke-width="3.29925" stroke-linecap="round" stroke-linejoin="round"/>
<path d="M563.485 112.387C563.356 112.239 563.201 112.122 563.029 112.042C562.857 111.962 562.673 111.921 562.486 111.921C562.3 111.921 562.115 111.962 561.943 112.042C561.772 112.122 561.617 112.239 561.487 112.387C561.298 112.602 561.171 112.873 561.122 113.166C561.072 113.46 561.103 113.763 561.209 114.038C561.316 114.313 561.494 114.547 561.721 114.712C561.948 114.877 562.214 114.964 562.486 114.964C562.759 114.964 563.025 114.877 563.252 114.712C563.479 114.547 563.657 114.313 563.763 114.038C563.87 113.763 563.9 113.46 563.851 113.166C563.801 112.873 563.674 112.602 563.485 112.387Z" fill="#201D67"/>
<path d="M209.941 174.677C213.786 174.936 217.63 176.777 220.669 180.156C223.681 183.504 225.332 187.765 225.582 192.026" stroke="#1C186C" stroke-width="3.29925" stroke-linecap="round" stroke-linejoin="round"/>
<path d="M227.165 193.014L225.458 193.471L208.138 198.113C205.807 198.737 203.767 196.454 204.35 193.867L205.571 188.388L205.654 188.038L206.723 183.274L206.82 182.818L208.624 174.828L209.068 172.88C209.485 171.008 211.136 169.806 212.829 170.11C216.993 170.856 220.906 172.956 224.029 176.426C227.138 179.865 229.011 184.203 229.691 188.814C229.969 190.701 228.858 192.558 227.165 193.014Z" stroke="#1C186C" stroke-width="3.29925" stroke-linecap="round" stroke-linejoin="round"/>
<path d="M216.699 188.148C217.926 188.148 218.92 187.044 218.92 185.682C218.92 184.321 217.926 183.217 216.699 183.217C215.473 183.217 214.479 184.321 214.479 185.682C214.479 187.044 215.473 188.148 216.699 188.148Z" stroke="#1C186C" stroke-width="3.29925" stroke-linecap="round" stroke-linejoin="round"/>
<path d="M208.486 187.217C207.722 188.07 206.626 188.344 205.654 188.009L207.042 181.799C207.57 181.936 208.069 182.21 208.486 182.666C209.624 183.93 209.624 185.969 208.486 187.217Z" stroke="#1C186C" stroke-width="3.29925" stroke-linecap="round" stroke-linejoin="round"/>
<path d="M210.231 195.894C210.022 195.012 210.231 194.037 210.841 193.353C211.771 192.318 213.27 192.318 214.2 193.353C214.506 193.687 214.714 194.098 214.811 194.54" stroke="#1C186C" stroke-width="3.29925" stroke-linecap="round" stroke-linejoin="round"/>
<path d="M610.646 165.171C614.491 165.43 618.335 167.272 621.374 170.65C624.386 173.998 626.037 178.26 626.287 182.521" stroke="#1C186C" stroke-width="3.29925" stroke-linecap="round" stroke-linejoin="round"/>
<path d="M627.872 183.51L626.165 183.966L608.845 188.608C606.514 189.232 604.474 186.949 605.057 184.362L606.278 178.883L606.361 178.533L607.43 173.77L607.527 173.313L609.331 165.323L609.775 163.375C610.192 161.503 611.843 160.301 613.536 160.605C617.7 161.351 621.613 163.451 624.736 166.921C627.845 170.361 629.718 174.698 630.398 179.309C630.676 181.197 629.566 183.053 627.872 183.51Z" stroke="#1C186C" stroke-width="3.29925" stroke-linecap="round" stroke-linejoin="round"/>
<path d="M617.407 178.642C618.634 178.642 619.628 177.538 619.628 176.176C619.628 174.814 618.634 173.71 617.407 173.71C616.181 173.71 615.187 174.814 615.187 176.176C615.187 177.538 616.181 178.642 617.407 178.642Z" stroke="#1C186C" stroke-width="3.29925" stroke-linecap="round" stroke-linejoin="round"/>
<path d="M609.192 177.712C608.428 178.564 607.332 178.838 606.36 178.503L607.748 172.293C608.276 172.43 608.775 172.704 609.192 173.161C610.33 174.424 610.33 176.464 609.192 177.712Z" stroke="#1C186C" stroke-width="3.29925" stroke-linecap="round" stroke-linejoin="round"/>
<path d="M610.939 186.388C610.73 185.505 610.939 184.531 611.549 183.846C612.479 182.811 613.978 182.811 614.908 183.846C615.214 184.181 615.422 184.592 615.519 185.033" stroke="#1C186C" stroke-width="3.29925" stroke-linecap="round" stroke-linejoin="round"/>
<path d="M623.386 50.0812L609.175 65.6653C607.662 67.3242 607.662 70.0027 609.175 71.6616C610.687 73.3204 613.13 73.3204 614.643 71.6616L628.854 56.0775C630.367 54.4186 630.367 51.7401 628.854 50.0812C627.341 48.4224 624.899 48.4224 623.386 50.0812Z" stroke="#1C186C" stroke-width="3.29925" stroke-linecap="round" stroke-linejoin="round"/>
<path d="M612.156 67.737C613.794 65.941 614.377 66.5802 616.029 64.7842C617.667 62.9881 617.084 62.3488 618.721 60.5376C620.359 58.7415 620.956 59.3808 622.594 57.5847C624.232 55.7887 623.649 55.1342 625.287 53.3381" stroke="#1C186C" stroke-width="3.29925" stroke-linecap="round" stroke-linejoin="round"/>
<path d="M618.471 48.2859L607.535 60.2783C605.717 62.272 605.717 65.4832 607.535 67.4769L625.022 48.3011C623.218 46.2922 620.276 46.2922 618.471 48.2859Z" stroke="#1C186C" stroke-width="3.29925" stroke-linecap="round" stroke-linejoin="round"/>
<path d="M619.555 73.4554L630.491 61.463C632.309 59.4693 632.309 56.2581 630.491 54.2645L613.005 73.4402C614.809 75.4491 617.751 75.4491 619.555 73.4554Z" stroke="#1C186C" stroke-width="3.29925" stroke-linecap="round" stroke-linejoin="round"/>
<path d="M83.6634 196.653H69.7852C67.3149 196.653 65.3164 194.461 65.3164 191.752V188.83H88.1321V191.752C88.1321 194.461 86.1337 196.653 83.6634 196.653Z" stroke="#1C186C" stroke-width="3.29925" stroke-linecap="round" stroke-linejoin="round"/>
<path d="M87.4261 184.14H66.0259C64.8463 184.14 63.8887 185.19 63.8887 186.484C63.8887 187.777 64.8463 188.828 66.0259 188.828H87.4261C88.6057 188.828 89.5633 187.777 89.5633 186.484C89.5633 185.19 88.6057 184.14 87.4261 184.14Z" stroke="#1C186C" stroke-width="3.29925" stroke-linecap="round" stroke-linejoin="round"/>
<path d="M77.4598 171.632H75.9887C70.0905 171.632 65.3164 176.867 65.3164 183.335V184.142H88.1321V183.335C88.1321 176.867 83.358 171.632 77.4598 171.632Z" stroke="#1C186C" stroke-width="3.29925" stroke-linecap="round" stroke-linejoin="round"/>
<path d="M65.166 189.208C65.7072 189.847 66.0957 190.714 67.1087 190.714C68.1217 190.714 68.5103 189.847 69.0515 189.208" stroke="#1C186C" stroke-width="3.29925" stroke-linecap="round" stroke-linejoin="round"/>
<path d="M78.1982 189.208C78.7394 189.847 79.128 190.714 80.141 190.714C81.1678 190.714 81.5564 189.847 82.0976 189.208" stroke="#1C186C" stroke-width="3.29925" stroke-linecap="round" stroke-linejoin="round"/>
<path d="M86.6794 190.699C85.6667 190.699 85.2783 189.832 84.7373 189.193" stroke="#1C186C" stroke-width="3.29925" stroke-linecap="round" stroke-linejoin="round"/>
<path d="M71.6904 189.208C72.2316 189.847 72.6202 190.714 73.6332 190.714C74.6462 190.714 75.0347 189.847 75.5759 189.208" stroke="#1C186C" stroke-width="3.29925" stroke-linecap="round" stroke-linejoin="round"/>
<path d="M560.443 15.5501H546.564C544.094 15.5501 542.096 13.3586 542.096 10.6497V7.72766H564.911V10.6497C564.911 13.3586 562.913 15.5501 560.443 15.5501Z" stroke="#1C186C" stroke-width="3.29925" stroke-linecap="round" stroke-linejoin="round"/>
<path d="M564.206 3.03851H542.806C541.627 3.03851 540.669 4.08861 540.669 5.38221C540.669 6.67582 541.627 7.72592 542.806 7.72592H564.206C565.386 7.72592 566.344 6.67582 566.344 5.38221C566.344 4.08861 565.386 3.03851 564.206 3.03851Z" stroke="#1C186C" stroke-width="3.29925" stroke-linecap="round" stroke-linejoin="round"/>
<path d="M554.239 -9.47046H552.768C546.87 -9.47046 542.096 -4.23518 542.096 2.23283V3.03943H564.911V2.23283C564.911 -4.23518 560.137 -9.47046 554.239 -9.47046Z" stroke="#1C186C" stroke-width="3.29925" stroke-linecap="round" stroke-linejoin="round"/>
<path d="M541.946 8.10779C542.487 8.74691 542.876 9.61428 543.889 9.61428C544.902 9.61428 545.291 8.74691 545.832 8.10779" stroke="#1C186C" stroke-width="3.29925" stroke-linecap="round" stroke-linejoin="round"/>
<path d="M554.977 8.10779C555.518 8.74691 555.906 9.61428 556.919 9.61428C557.946 9.61428 558.335 8.74691 558.876 8.10779" stroke="#1C186C" stroke-width="3.29925" stroke-linecap="round" stroke-linejoin="round"/>
<path d="M563.46 9.59914C562.447 9.59914 562.059 8.73205 561.518 8.09314" stroke="#1C186C" stroke-width="3.29925" stroke-linecap="round" stroke-linejoin="round"/>
<path d="M548.47 8.10779C549.011 8.74691 549.399 9.61428 550.412 9.61428C551.425 9.61428 551.814 8.74691 552.355 8.10779" stroke="#1C186C" stroke-width="3.29925" stroke-linecap="round" stroke-linejoin="round"/>
<path d="M509.091 205.785H495.213C492.743 205.785 490.744 203.593 490.744 200.884V197.962H513.56V200.884C513.56 203.593 511.561 205.785 509.091 205.785Z" stroke="#1C186C" stroke-width="3.29925" stroke-linecap="round" stroke-linejoin="round"/>
<path d="M512.854 193.274H491.454C490.274 193.274 489.316 194.324 489.316 195.618C489.316 196.911 490.274 197.961 491.454 197.961H512.854C514.033 197.961 514.991 196.911 514.991 195.618C514.991 194.324 514.033 193.274 512.854 193.274Z" stroke="#1C186C" stroke-width="3.29925" stroke-linecap="round" stroke-linejoin="round"/>
<path d="M502.888 180.764H501.416C495.518 180.764 490.744 185.999 490.744 192.467V193.274H513.56V192.467C513.56 185.999 508.786 180.764 502.888 180.764Z" stroke="#1C186C" stroke-width="3.29925" stroke-linecap="round" stroke-linejoin="round"/>
<path d="M490.591 198.343C491.132 198.982 491.521 199.85 492.534 199.85C493.547 199.85 493.935 198.982 494.476 198.343" stroke="#1C186C" stroke-width="3.29925" stroke-linecap="round" stroke-linejoin="round"/>
<path d="M503.621 198.343C504.162 198.982 504.551 199.85 505.564 199.85C506.591 199.85 506.979 198.982 507.52 198.343" stroke="#1C186C" stroke-width="3.29925" stroke-linecap="round" stroke-linejoin="round"/>
<path d="M512.103 199.834C511.091 199.834 510.702 198.966 510.161 198.328" stroke="#1C186C" stroke-width="3.29925" stroke-linecap="round" stroke-linejoin="round"/>
<path d="M497.113 198.343C497.654 198.982 498.043 199.85 499.056 199.85C500.069 199.85 500.458 198.982 500.999 198.343" stroke="#1C186C" stroke-width="3.29925" stroke-linecap="round" stroke-linejoin="round"/>
</g>
</svg>
