<svg width="46" height="43" viewBox="0 0 46 43" fill="none" xmlns="http://www.w3.org/2000/svg">
<rect x="3.67383" y="4.97827" width="42.2674" height="37.3367" rx="6.96951" fill="#6C5FBC"/>
<rect x="1.0075" y="1.0075" width="40.2524" height="35.3217" rx="5.96201" fill="#DBD9EE" stroke="#6C5FBC" stroke-width="2.01499"/>
<path d="M32.624 12.0508L9.72243 11.9495" stroke="#6C5FBC" stroke-width="2.08432" stroke-linecap="round" stroke-linejoin="round"/>
<path d="M32.6109 16.636L27.5167 16.6124C25.4096 16.6027 23.7052 14.5407 23.7126 12.0103C23.72 9.47987 25.4365 7.4337 27.5435 7.44346L32.6377 7.46704" stroke="#6C5FBC" stroke-width="2.08432" stroke-linecap="round" stroke-linejoin="round"/>
<path d="M17.3617 26.7221L10.7067 26.6466C10.1614 26.6441 9.70447 26.1063 9.69399 25.4514L9.64947 23.725C9.63908 23.0404 10.0993 22.4622 10.6694 22.4648L17.25 22.5399L17.3617 26.7221Z" stroke="#6C5FBC" stroke-width="2.08432" stroke-linecap="round" stroke-linejoin="round"/>
<path d="M27.814 29.2092L18.4076 29.0912C17.8623 29.0887 17.4053 28.5509 17.3949 27.8961L17.2742 22.5237L32.555 22.7134L32.5654 23.398C32.6427 26.6423 30.5033 29.2514 27.814 29.2092Z" stroke="#6C5FBC" stroke-width="2.08432" stroke-linecap="round" stroke-linejoin="round"/>
</svg>
