<svg width="11" height="11" viewBox="0 0 11 11" fill="none" xmlns="http://www.w3.org/2000/svg">
<mask id="path-1-inside-1_1_5353" fill="white">
<path d="M10.2294 6.35833H6.08275V10.5634H4.42798V6.35833H0.300781V4.8593H4.42798V0.634766H6.08275V4.8593H10.2294V6.35833Z"/>
</mask>
<path d="M10.2294 6.35833H6.08275V10.5634H4.42798V6.35833H0.300781V4.8593H4.42798V0.634766H6.08275V4.8593H10.2294V6.35833Z" fill="black"/>
<path d="M10.2294 6.35833V9.04603H12.9171V6.35833H10.2294ZM6.08275 6.35833V3.67063H3.39505V6.35833H6.08275ZM6.08275 10.5634V13.2511H8.77045V10.5634H6.08275ZM4.42798 10.5634H1.74028V13.2511H4.42798V10.5634ZM4.42798 6.35833H7.11568V3.67063H4.42798V6.35833ZM0.300781 6.35833H-2.38692V9.04603H0.300781V6.35833ZM0.300781 4.8593V2.1716H-2.38692V4.8593H0.300781ZM4.42798 4.8593V7.547H7.11568V4.8593H4.42798ZM4.42798 0.634766V-2.05293H1.74028V0.634766H4.42798ZM6.08275 0.634766H8.77045V-2.05293H6.08275V0.634766ZM6.08275 4.8593H3.39505V7.547H6.08275V4.8593ZM10.2294 4.8593H12.9171V2.1716H10.2294V4.8593ZM10.2294 3.67063H6.08275V9.04603H10.2294V3.67063ZM3.39505 6.35833V10.5634H8.77045V6.35833H3.39505ZM6.08275 7.8757H4.42798V13.2511H6.08275V7.8757ZM7.11568 10.5634V6.35833H1.74028V10.5634H7.11568ZM4.42798 3.67063H0.300781V9.04603H4.42798V3.67063ZM2.98848 6.35833V4.8593H-2.38692V6.35833H2.98848ZM0.300781 7.547H4.42798V2.1716H0.300781V7.547ZM7.11568 4.8593V0.634766H1.74028V4.8593H7.11568ZM4.42798 3.32247H6.08275V-2.05293H4.42798V3.32247ZM3.39505 0.634766V4.8593H8.77045V0.634766H3.39505ZM6.08275 7.547H10.2294V2.1716H6.08275V7.547ZM7.54171 4.8593V6.35833H12.9171V4.8593H7.54171Z" fill="white" mask="url(#path-1-inside-1_1_5353)"/>
</svg>
