<svg width="37" height="37" viewBox="0 0 37 37" fill="none" xmlns="http://www.w3.org/2000/svg">
<rect x="0.755859" y="0.709778" width="35.7396" height="35.7396" rx="17.8698" fill="#F2FDF6"/>
<path d="M22.3507 25.4667H14.904C12.67 25.4667 11.1807 24.3497 11.1807 21.7434V16.5307C11.1807 13.9243 12.67 12.8073 14.904 12.8073H22.3507C24.5847 12.8073 26.0741 13.9243 26.0741 16.5307V21.7434C26.0741 24.3497 24.5847 25.4667 22.3507 25.4667Z" stroke="#22C55E" stroke-width="1.11701" stroke-miterlimit="10" stroke-linecap="round" stroke-linejoin="round"/>
<path d="M18.6276 21.3711C19.8614 21.3711 20.8616 20.3709 20.8616 19.137C20.8616 17.9032 19.8614 16.903 18.6276 16.903C17.3938 16.903 16.3936 17.9032 16.3936 19.137C16.3936 20.3709 17.3938 21.3711 18.6276 21.3711Z" stroke="#22C55E" stroke-width="1.11701" stroke-miterlimit="10" stroke-linecap="round" stroke-linejoin="round"/>
<path d="M13.7871 17.2754V20.9987" stroke="#22C55E" stroke-width="1.11701" stroke-miterlimit="10" stroke-linecap="round" stroke-linejoin="round"/>
<path d="M23.4678 17.2754V20.9987" stroke="#22C55E" stroke-width="1.11701" stroke-miterlimit="10" stroke-linecap="round" stroke-linejoin="round"/>
</svg>
