<svg width="43" height="32" viewBox="0 0 43 32" fill="none" xmlns="http://www.w3.org/2000/svg">
<path fill-rule="evenodd" clip-rule="evenodd" d="M27.0805 31.7952C24.8722 27.5259 23.7681 22.8886 23.7681 17.8833C23.7681 12.8043 25.1114 8.60865 27.7981 5.29629C30.4848 1.98393 34.6621 0.327746 40.3299 0.327746V7.28371C38.3424 7.28371 36.8887 7.72535 35.9686 8.60865C35.0485 9.49195 34.5885 11.1849 34.5885 13.6876V14.7917H42.6485V31.7952H27.0805ZM4.22641 31.7949C2.01818 27.5257 0.914062 22.8884 0.914062 17.883C0.914062 12.8041 2.25741 8.60842 4.94409 5.29606C7.63078 1.9837 11.808 0.327515 17.4758 0.327515V7.28347C15.4884 7.28347 14.0347 7.72512 13.1146 8.60842C12.1945 9.49172 11.7344 11.1847 11.7344 13.6874V14.7915H19.7945V31.7949H4.22641Z" fill="#DADADA"/>
</svg>
