<svg width="37" height="36" viewBox="0 0 37 36" fill="none" xmlns="http://www.w3.org/2000/svg">
<rect x="0.755859" y="0.0253983" width="35.7396" height="35.7396" rx="17.8698" fill="#F4F0FF"/>
<path d="M19.1187 10.2775L19.0964 10.3297L16.9368 15.3413H14.8145C14.3082 15.3413 13.8241 15.4455 13.3848 15.6317L14.6879 12.519L14.7177 12.4445L14.7699 12.3254C14.7847 12.2807 14.7996 12.236 14.822 12.1988C15.7975 9.94243 16.8996 9.42861 19.1187 10.2775Z" stroke="#936DFF" stroke-width="1.11701" stroke-linecap="round" stroke-linejoin="round"/>
<path d="M23.1322 15.4902C22.7971 15.386 22.4396 15.3413 22.0822 15.3413H16.9365L19.0961 10.3297L19.1184 10.2775C19.2301 10.3148 19.3344 10.3669 19.4461 10.4116L21.0918 11.1041C22.0077 11.4839 22.6481 11.8786 23.0354 12.3552C23.1098 12.4445 23.1694 12.5264 23.2215 12.6232C23.2886 12.7275 23.3407 12.8318 23.3705 12.9435C23.4003 13.0105 23.4226 13.0775 23.4375 13.1371C23.6386 13.7626 23.5194 14.5296 23.1322 15.4902Z" stroke="#936DFF" stroke-width="1.11701" stroke-linecap="round" stroke-linejoin="round"/>
<path d="M25.718 18.9755V20.4276C25.718 20.5765 25.7105 20.7254 25.7031 20.8744C25.5616 23.4733 24.1095 24.7839 21.3542 24.7839H15.5458C15.3671 24.7839 15.1883 24.769 15.0171 24.7467C12.649 24.5903 11.3831 23.3243 11.2267 20.9563C11.2043 20.785 11.1895 20.6063 11.1895 20.4276V18.9755C11.1895 17.4787 12.098 16.1904 13.3937 15.6319C13.8405 15.4457 14.3171 15.3415 14.8234 15.3415H22.0914C22.4563 15.3415 22.8138 15.3936 23.1414 15.4904C24.6233 15.9447 25.718 17.3297 25.718 18.9755Z" stroke="#936DFF" stroke-width="1.11701" stroke-linecap="round" stroke-linejoin="round"/>
<path d="M14.6881 12.519L13.3849 15.6317C12.0892 16.1902 11.1807 17.4785 11.1807 18.9753V16.7934C11.1807 14.6785 12.6849 12.9137 14.6881 12.519Z" stroke="#936DFF" stroke-width="1.11701" stroke-linecap="round" stroke-linejoin="round"/>
<path d="M25.7152 16.793V18.9749C25.7152 17.3367 24.628 15.9441 23.1387 15.4973C23.5259 14.5292 23.6376 13.7697 23.4514 13.1367C23.4365 13.0697 23.4142 13.0027 23.3844 12.9431C24.7695 13.658 25.7152 15.125 25.7152 16.793Z" stroke="#936DFF" stroke-width="1.11701" stroke-linecap="round" stroke-linejoin="round"/>
</svg>
